<mxfile host="Electron" modified="2025-03-15T14:17:46.108Z" agent="Mozilla/5.0 (Windows NT 10.0; Win64; x64) AppleWebKit/537.36 (KHTML, like Gecko) draw.io/24.4.8 Chrome/124.0.6367.207 Electron/30.0.6 Safari/537.36" etag="dDAEPxsfELa_mvJgAwm2" version="24.4.8" type="device">
  <diagram name="第 1 页" id="RZDrkvLuWEcAvyyYzUkx">
    <mxGraphModel dx="1502" dy="758" grid="1" gridSize="10" guides="1" tooltips="1" connect="1" arrows="1" fold="1" page="1" pageScale="1" pageWidth="3300" pageHeight="4681" math="0" shadow="0">
      <root>
        <mxCell id="0" />
        <mxCell id="1" parent="0" />
        <mxCell id="Trtc8e1E53qL4lUm9dAX-1" value="" style="rounded=0;whiteSpace=wrap;html=1;sketch=1;hachureGap=4;jiggle=2;curveFitting=1;fontFamily=Architects Daughter;fontSource=https%3A%2F%2Ffonts.googleapis.com%2Fcss%3Ffamily%3DArchitects%2BDaughter;" vertex="1" parent="1">
          <mxGeometry x="425" y="110" width="110" height="40" as="geometry" />
        </mxCell>
        <mxCell id="Trtc8e1E53qL4lUm9dAX-30" style="edgeStyle=orthogonalEdgeStyle;rounded=0;sketch=1;hachureGap=4;jiggle=2;curveFitting=1;orthogonalLoop=1;jettySize=auto;html=1;exitX=1;exitY=0.5;exitDx=0;exitDy=0;fontFamily=Architects Daughter;fontSource=https%3A%2F%2Ffonts.googleapis.com%2Fcss%3Ffamily%3DArchitects%2BDaughter;" edge="1" parent="1" source="Trtc8e1E53qL4lUm9dAX-2" target="Trtc8e1E53qL4lUm9dAX-29">
          <mxGeometry relative="1" as="geometry" />
        </mxCell>
        <mxCell id="Trtc8e1E53qL4lUm9dAX-2" value="" style="rounded=0;whiteSpace=wrap;html=1;sketch=1;hachureGap=4;jiggle=2;curveFitting=1;fontFamily=Architects Daughter;fontSource=https%3A%2F%2Ffonts.googleapis.com%2Fcss%3Ffamily%3DArchitects%2BDaughter;" vertex="1" parent="1">
          <mxGeometry x="425" y="150" width="110" height="40" as="geometry" />
        </mxCell>
        <mxCell id="Trtc8e1E53qL4lUm9dAX-31" style="edgeStyle=orthogonalEdgeStyle;rounded=0;sketch=1;hachureGap=4;jiggle=2;curveFitting=1;orthogonalLoop=1;jettySize=auto;html=1;exitX=1;exitY=0.5;exitDx=0;exitDy=0;fontFamily=Architects Daughter;fontSource=https%3A%2F%2Ffonts.googleapis.com%2Fcss%3Ffamily%3DArchitects%2BDaughter;" edge="1" parent="1" source="Trtc8e1E53qL4lUm9dAX-3" target="Trtc8e1E53qL4lUm9dAX-28">
          <mxGeometry relative="1" as="geometry" />
        </mxCell>
        <mxCell id="Trtc8e1E53qL4lUm9dAX-3" value="" style="rounded=0;whiteSpace=wrap;html=1;sketch=1;hachureGap=4;jiggle=2;curveFitting=1;fontFamily=Architects Daughter;fontSource=https%3A%2F%2Ffonts.googleapis.com%2Fcss%3Ffamily%3DArchitects%2BDaughter;" vertex="1" parent="1">
          <mxGeometry x="425" y="190" width="110" height="40" as="geometry" />
        </mxCell>
        <mxCell id="Trtc8e1E53qL4lUm9dAX-4" value="" style="rounded=0;whiteSpace=wrap;html=1;sketch=1;hachureGap=4;jiggle=2;curveFitting=1;fontFamily=Architects Daughter;fontSource=https%3A%2F%2Ffonts.googleapis.com%2Fcss%3Ffamily%3DArchitects%2BDaughter;" vertex="1" parent="1">
          <mxGeometry x="425" y="230" width="110" height="40" as="geometry" />
        </mxCell>
        <mxCell id="Trtc8e1E53qL4lUm9dAX-5" value="" style="rounded=0;whiteSpace=wrap;html=1;sketch=1;hachureGap=4;jiggle=2;curveFitting=1;fontFamily=Architects Daughter;fontSource=https%3A%2F%2Ffonts.googleapis.com%2Fcss%3Ffamily%3DArchitects%2BDaughter;" vertex="1" parent="1">
          <mxGeometry x="425" y="270" width="110" height="40" as="geometry" />
        </mxCell>
        <mxCell id="Trtc8e1E53qL4lUm9dAX-6" value="&lt;font style=&quot;font-size: 24px;&quot;&gt;task_struct&lt;/font&gt;" style="text;html=1;align=center;verticalAlign=middle;resizable=0;points=[];autosize=1;strokeColor=none;fillColor=none;fontFamily=Architects Daughter;fontSource=https%3A%2F%2Ffonts.googleapis.com%2Fcss%3Ffamily%3DArchitects%2BDaughter;" vertex="1" parent="1">
          <mxGeometry x="400" y="70" width="160" height="40" as="geometry" />
        </mxCell>
        <mxCell id="Trtc8e1E53qL4lUm9dAX-7" value="&lt;font style=&quot;font-size: 24px;&quot;&gt;0&lt;/font&gt;" style="rounded=0;whiteSpace=wrap;html=1;sketch=1;hachureGap=4;jiggle=2;curveFitting=1;fontFamily=Architects Daughter;fontSource=https%3A%2F%2Ffonts.googleapis.com%2Fcss%3Ffamily%3DArchitects%2BDaughter;" vertex="1" parent="1">
          <mxGeometry x="600" y="340" width="110" height="40" as="geometry" />
        </mxCell>
        <mxCell id="Trtc8e1E53qL4lUm9dAX-8" value="&lt;font style=&quot;font-size: 24px;&quot;&gt;1&lt;/font&gt;" style="rounded=0;whiteSpace=wrap;html=1;sketch=1;hachureGap=4;jiggle=2;curveFitting=1;fontFamily=Architects Daughter;fontSource=https%3A%2F%2Ffonts.googleapis.com%2Fcss%3Ffamily%3DArchitects%2BDaughter;" vertex="1" parent="1">
          <mxGeometry x="600" y="380" width="110" height="40" as="geometry" />
        </mxCell>
        <mxCell id="Trtc8e1E53qL4lUm9dAX-9" value="&lt;font style=&quot;font-size: 24px;&quot;&gt;1&lt;/font&gt;" style="rounded=0;whiteSpace=wrap;html=1;sketch=1;hachureGap=4;jiggle=2;curveFitting=1;fontFamily=Architects Daughter;fontSource=https%3A%2F%2Ffonts.googleapis.com%2Fcss%3Ffamily%3DArchitects%2BDaughter;" vertex="1" parent="1">
          <mxGeometry x="600" y="420" width="110" height="40" as="geometry" />
        </mxCell>
        <mxCell id="Trtc8e1E53qL4lUm9dAX-10" value="&lt;font style=&quot;font-size: 48px;&quot;&gt;...&lt;/font&gt;" style="rounded=0;whiteSpace=wrap;html=1;sketch=1;hachureGap=4;jiggle=2;curveFitting=1;fontFamily=Architects Daughter;fontSource=https%3A%2F%2Ffonts.googleapis.com%2Fcss%3Ffamily%3DArchitects%2BDaughter;" vertex="1" parent="1">
          <mxGeometry x="600" y="460" width="110" height="40" as="geometry" />
        </mxCell>
        <mxCell id="Trtc8e1E53qL4lUm9dAX-12" value="&lt;font style=&quot;font-size: 24px;&quot;&gt;0&lt;/font&gt;" style="rounded=0;whiteSpace=wrap;html=1;sketch=1;hachureGap=4;jiggle=2;curveFitting=1;fontFamily=Architects Daughter;fontSource=https%3A%2F%2Ffonts.googleapis.com%2Fcss%3Ffamily%3DArchitects%2BDaughter;" vertex="1" parent="1">
          <mxGeometry x="780" y="340" width="110" height="40" as="geometry" />
        </mxCell>
        <mxCell id="Trtc8e1E53qL4lUm9dAX-13" value="&lt;font style=&quot;font-size: 24px;&quot;&gt;1&lt;/font&gt;" style="rounded=0;whiteSpace=wrap;html=1;sketch=1;hachureGap=4;jiggle=2;curveFitting=1;fontFamily=Architects Daughter;fontSource=https%3A%2F%2Ffonts.googleapis.com%2Fcss%3Ffamily%3DArchitects%2BDaughter;" vertex="1" parent="1">
          <mxGeometry x="780" y="380" width="110" height="40" as="geometry" />
        </mxCell>
        <mxCell id="Trtc8e1E53qL4lUm9dAX-14" value="&lt;font style=&quot;font-size: 24px;&quot;&gt;0&lt;/font&gt;" style="rounded=0;whiteSpace=wrap;html=1;sketch=1;hachureGap=4;jiggle=2;curveFitting=1;fontFamily=Architects Daughter;fontSource=https%3A%2F%2Ffonts.googleapis.com%2Fcss%3Ffamily%3DArchitects%2BDaughter;" vertex="1" parent="1">
          <mxGeometry x="780" y="420" width="110" height="40" as="geometry" />
        </mxCell>
        <mxCell id="Trtc8e1E53qL4lUm9dAX-15" value="&lt;font style=&quot;font-size: 48px;&quot;&gt;...&lt;/font&gt;" style="rounded=0;whiteSpace=wrap;html=1;sketch=1;hachureGap=4;jiggle=2;curveFitting=1;fontFamily=Architects Daughter;fontSource=https%3A%2F%2Ffonts.googleapis.com%2Fcss%3Ffamily%3DArchitects%2BDaughter;" vertex="1" parent="1">
          <mxGeometry x="780" y="460" width="110" height="40" as="geometry" />
        </mxCell>
        <mxCell id="Trtc8e1E53qL4lUm9dAX-17" value="&lt;font style=&quot;font-size: 24px;&quot;&gt;SIG_DEL&lt;/font&gt;" style="rounded=0;whiteSpace=wrap;html=1;sketch=1;hachureGap=4;jiggle=2;curveFitting=1;fontFamily=Architects Daughter;fontSource=https%3A%2F%2Ffonts.googleapis.com%2Fcss%3Ffamily%3DArchitects%2BDaughter;" vertex="1" parent="1">
          <mxGeometry x="960" y="340" width="110" height="40" as="geometry" />
        </mxCell>
        <mxCell id="Trtc8e1E53qL4lUm9dAX-18" value="&lt;font style=&quot;font-size: 24px;&quot;&gt;SIG_IGN&lt;/font&gt;" style="rounded=0;whiteSpace=wrap;html=1;sketch=1;hachureGap=4;jiggle=2;curveFitting=1;fontFamily=Architects Daughter;fontSource=https%3A%2F%2Ffonts.googleapis.com%2Fcss%3Ffamily%3DArchitects%2BDaughter;" vertex="1" parent="1">
          <mxGeometry x="960" y="380" width="110" height="40" as="geometry" />
        </mxCell>
        <mxCell id="Trtc8e1E53qL4lUm9dAX-25" style="edgeStyle=orthogonalEdgeStyle;rounded=0;sketch=1;hachureGap=4;jiggle=2;curveFitting=1;orthogonalLoop=1;jettySize=auto;html=1;exitX=1;exitY=0.5;exitDx=0;exitDy=0;fontFamily=Architects Daughter;fontSource=https%3A%2F%2Ffonts.googleapis.com%2Fcss%3Ffamily%3DArchitects%2BDaughter;" edge="1" parent="1" source="Trtc8e1E53qL4lUm9dAX-19">
          <mxGeometry relative="1" as="geometry">
            <mxPoint x="1140" y="440" as="targetPoint" />
          </mxGeometry>
        </mxCell>
        <mxCell id="Trtc8e1E53qL4lUm9dAX-19" value="" style="rounded=0;whiteSpace=wrap;html=1;sketch=1;hachureGap=4;jiggle=2;curveFitting=1;fontFamily=Architects Daughter;fontSource=https%3A%2F%2Ffonts.googleapis.com%2Fcss%3Ffamily%3DArchitects%2BDaughter;" vertex="1" parent="1">
          <mxGeometry x="960" y="420" width="110" height="40" as="geometry" />
        </mxCell>
        <mxCell id="Trtc8e1E53qL4lUm9dAX-20" value="&lt;font style=&quot;font-size: 48px;&quot;&gt;...&lt;/font&gt;" style="rounded=0;whiteSpace=wrap;html=1;sketch=1;hachureGap=4;jiggle=2;curveFitting=1;fontFamily=Architects Daughter;fontSource=https%3A%2F%2Ffonts.googleapis.com%2Fcss%3Ffamily%3DArchitects%2BDaughter;" vertex="1" parent="1">
          <mxGeometry x="960" y="460" width="110" height="40" as="geometry" />
        </mxCell>
        <mxCell id="Trtc8e1E53qL4lUm9dAX-22" value="&lt;font style=&quot;font-size: 24px;&quot;&gt;SIGHUP(1)&lt;/font&gt;" style="text;html=1;align=center;verticalAlign=middle;resizable=0;points=[];autosize=1;strokeColor=none;fillColor=none;fontFamily=Architects Daughter;fontSource=https%3A%2F%2Ffonts.googleapis.com%2Fcss%3Ffamily%3DArchitects%2BDaughter;" vertex="1" parent="1">
          <mxGeometry x="460" y="340" width="120" height="40" as="geometry" />
        </mxCell>
        <mxCell id="Trtc8e1E53qL4lUm9dAX-23" value="&lt;font style=&quot;font-size: 24px;&quot;&gt;SIGINT(2)&lt;/font&gt;" style="text;html=1;align=center;verticalAlign=middle;resizable=0;points=[];autosize=1;strokeColor=none;fillColor=none;fontFamily=Architects Daughter;fontSource=https%3A%2F%2Ffonts.googleapis.com%2Fcss%3Ffamily%3DArchitects%2BDaughter;" vertex="1" parent="1">
          <mxGeometry x="460" y="380" width="120" height="40" as="geometry" />
        </mxCell>
        <mxCell id="Trtc8e1E53qL4lUm9dAX-24" value="&lt;font style=&quot;font-size: 24px;&quot;&gt;SIGQUIT(3)&lt;/font&gt;" style="text;html=1;align=center;verticalAlign=middle;resizable=0;points=[];autosize=1;strokeColor=none;fillColor=none;fontFamily=Architects Daughter;fontSource=https%3A%2F%2Ffonts.googleapis.com%2Fcss%3Ffamily%3DArchitects%2BDaughter;" vertex="1" parent="1">
          <mxGeometry x="450" y="420" width="140" height="40" as="geometry" />
        </mxCell>
        <mxCell id="Trtc8e1E53qL4lUm9dAX-26" value="&lt;font style=&quot;font-size: 24px;&quot;&gt;User space&lt;/font&gt;&lt;div&gt;&lt;font style=&quot;font-size: 24px;&quot;&gt;void sighandler(int signo)&lt;/font&gt;&lt;/div&gt;&lt;div&gt;&lt;font style=&quot;font-size: 24px;&quot;&gt;{&lt;/font&gt;&lt;/div&gt;&lt;div&gt;&lt;font style=&quot;font-size: 24px;&quot;&gt;......&lt;/font&gt;&lt;/div&gt;&lt;div&gt;&lt;font style=&quot;font-size: 24px;&quot;&gt;}&lt;/font&gt;&lt;/div&gt;" style="text;html=1;align=left;verticalAlign=middle;resizable=0;points=[];autosize=1;strokeColor=none;fillColor=none;fontFamily=Architects Daughter;fontSource=https%3A%2F%2Ffonts.googleapis.com%2Fcss%3Ffamily%3DArchitects%2BDaughter;" vertex="1" parent="1">
          <mxGeometry x="1150" y="360" width="290" height="160" as="geometry" />
        </mxCell>
        <mxCell id="Trtc8e1E53qL4lUm9dAX-27" value="&lt;font style=&quot;font-size: 24px;&quot;&gt;block&lt;/font&gt;" style="text;html=1;align=center;verticalAlign=middle;resizable=0;points=[];autosize=1;strokeColor=none;fillColor=none;fontFamily=Architects Daughter;fontSource=https%3A%2F%2Ffonts.googleapis.com%2Fcss%3Ffamily%3DArchitects%2BDaughter;" vertex="1" parent="1">
          <mxGeometry x="615" y="293" width="80" height="40" as="geometry" />
        </mxCell>
        <mxCell id="Trtc8e1E53qL4lUm9dAX-28" value="&lt;span style=&quot;font-size: 24px;&quot;&gt;pending&lt;/span&gt;" style="text;html=1;align=center;verticalAlign=middle;resizable=0;points=[];autosize=1;strokeColor=none;fillColor=none;fontFamily=Architects Daughter;fontSource=https%3A%2F%2Ffonts.googleapis.com%2Fcss%3Ffamily%3DArchitects%2BDaughter;" vertex="1" parent="1">
          <mxGeometry x="785" y="293" width="100" height="40" as="geometry" />
        </mxCell>
        <mxCell id="Trtc8e1E53qL4lUm9dAX-29" value="&lt;font style=&quot;font-size: 24px;&quot;&gt;handler&lt;/font&gt;" style="text;html=1;align=center;verticalAlign=middle;resizable=0;points=[];autosize=1;strokeColor=none;fillColor=none;fontFamily=Architects Daughter;fontSource=https%3A%2F%2Ffonts.googleapis.com%2Fcss%3Ffamily%3DArchitects%2BDaughter;" vertex="1" parent="1">
          <mxGeometry x="965" y="293" width="100" height="40" as="geometry" />
        </mxCell>
        <mxCell id="Trtc8e1E53qL4lUm9dAX-32" style="edgeStyle=orthogonalEdgeStyle;rounded=0;sketch=1;hachureGap=4;jiggle=2;curveFitting=1;orthogonalLoop=1;jettySize=auto;html=1;exitX=1;exitY=0.5;exitDx=0;exitDy=0;entryX=0.478;entryY=-0.005;entryDx=0;entryDy=0;entryPerimeter=0;fontFamily=Architects Daughter;fontSource=https%3A%2F%2Ffonts.googleapis.com%2Fcss%3Ffamily%3DArchitects%2BDaughter;" edge="1" parent="1" source="Trtc8e1E53qL4lUm9dAX-4" target="Trtc8e1E53qL4lUm9dAX-27">
          <mxGeometry relative="1" as="geometry" />
        </mxCell>
      </root>
    </mxGraphModel>
  </diagram>
</mxfile>
